<?xml version="1.0" encoding="UTF-8" standalone="no"?>
<svg
   width="104.19mm"
   height="106.57mm"
   version="1.1"
   viewBox="0 0 104.19 106.57"
   id="svg12"
   sodipodi:docname="icono3.svg"
   inkscape:version="1.1.1 (3bf5ae0d25, 2021-09-20)"
   xmlns:inkscape="http://www.inkscape.org/namespaces/inkscape"
   xmlns:sodipodi="http://sodipodi.sourceforge.net/DTD/sodipodi-0.dtd"
   xmlns="http://www.w3.org/2000/svg"
   xmlns:svg="http://www.w3.org/2000/svg">
  <defs
     id="defs16" />
  <sodipodi:namedview
     id="namedview14"
     pagecolor="#ffffff"
     bordercolor="#666666"
     borderopacity="1.0"
     inkscape:pageshadow="2"
     inkscape:pageopacity="0.0"
     inkscape:pagecheckerboard="0"
     inkscape:document-units="mm"
     showgrid="false"
     inkscape:zoom="0.99557021"
     inkscape:cx="196.8721"
     inkscape:cy="201.39213"
     inkscape:window-width="1920"
     inkscape:window-height="991"
     inkscape:window-x="-9"
     inkscape:window-y="1071"
     inkscape:window-maximized="1"
     inkscape:current-layer="svg12" />
  <g
     transform="matrix(0.90562132,0,0,0.90562132,-35.954476,-82.544461)"
     fill="none"
     stroke="#000000"
     stroke-linecap="round"
     stroke-linejoin="round"
     stroke-width="2.3"
     id="g10">
    <circle
       cx="98.691002"
       cy="151.28"
       r="46.476002"
       style="paint-order:stroke fill markers"
       id="circle2" />
    <path
       d="m 94.062,201.83 c 5.0172,0.81565 10.166,0.81565 15.183,0 9.6798,-1.5736 18.831,-6.2465 25.782,-13.164 6.951,-6.918 11.667,-16.047 13.287,-25.72"
       id="path4" />
    <path
       d="m 145.92,129.1 c -1.7578,-4.7695 -4.2904,-9.2524 -7.4685,-13.219 -6.1315,-7.6537 -14.702,-13.323 -24.144,-15.972 -9.4423,-2.649 -19.711,-2.2646 -28.929,1.0829"
       id="path6" />
    <path
       d="m 64.485,113.29 c -3.9951,3.1427 -7.4787,6.9343 -10.273,11.181 -5.3902,8.1927 -8.1409,18.093 -7.7494,27.892 0.39152,9.799 3.9233,19.449 9.95,27.185"
       id="path8" />
  </g>
</svg>
